<svg id="visual" viewBox="0 0 900 150" width="900" height="150" xmlns="http://www.w3.org/2000/svg" xmlns:xlink="http://www.w3.org/1999/xlink" version="1.1"><path d="M0 113L21.5 104.3C43 95.7 86 78.3 128.8 79.2C171.7 80 214.3 99 257.2 98.7C300 98.3 343 78.7 385.8 69.8C428.7 61 471.3 63 514.2 69.8C557 76.7 600 88.3 642.8 93.5C685.7 98.7 728.3 97.3 771.2 100.2C814 103 857 110 878.5 113.5L900 117L900 151L878.5 151C857 151 814 151 771.2 151C728.3 151 685.7 151 642.8 151C600 151 557 151 514.2 151C471.3 151 428.7 151 385.8 151C343 151 300 151 257.2 151C214.3 151 171.7 151 128.8 151C86 151 43 151 21.5 151L0 151Z" fill="#14c29c" stroke-linecap="round" stroke-linejoin="miter"></path></svg>