<svg id="visual" viewBox="0 0 900 150" width="900" height="150" xmlns="http://www.w3.org/2000/svg" xmlns:xlink="http://www.w3.org/1999/xlink" version="1.1"><path d="M0 123L21.5 123.2C43 123.3 86 123.7 128.8 118.7C171.7 113.7 214.3 103.3 257.2 102.2C300 101 343 109 385.8 111.2C428.7 113.3 471.3 109.7 514.2 108C557 106.3 600 106.7 642.8 109C685.7 111.3 728.3 115.7 771.2 117C814 118.3 857 116.7 878.5 115.8L900 115L900 0L878.5 0C857 0 814 0 771.2 0C728.3 0 685.7 0 642.8 0C600 0 557 0 514.2 0C471.3 0 428.7 0 385.8 0C343 0 300 0 257.2 0C214.3 0 171.7 0 128.8 0C86 0 43 0 21.5 0L0 0Z" fill="#151515"></path><path d="M0 97L21.5 91C43 85 86 73 128.8 67.5C171.7 62 214.3 63 257.2 64.5C300 66 343 68 385.8 72.5C428.7 77 471.3 84 514.2 86.3C557 88.7 600 86.3 642.8 85.8C685.7 85.3 728.3 86.7 771.2 82.8C814 79 857 70 878.5 65.5L900 61L900 0L878.5 0C857 0 814 0 771.2 0C728.3 0 685.7 0 642.8 0C600 0 557 0 514.2 0C471.3 0 428.7 0 385.8 0C343 0 300 0 257.2 0C214.3 0 171.7 0 128.8 0C86 0 43 0 21.5 0L0 0Z" fill="#213b33"></path><path d="M0 58L21.5 60.8C43 63.7 86 69.3 128.8 72.5C171.7 75.7 214.3 76.3 257.2 76C300 75.7 343 74.3 385.8 71.3C428.7 68.3 471.3 63.7 514.2 58.8C557 54 600 49 642.8 50.8C685.7 52.7 728.3 61.3 771.2 64.3C814 67.3 857 64.7 878.5 63.3L900 62L900 0L878.5 0C857 0 814 0 771.2 0C728.3 0 685.7 0 642.8 0C600 0 557 0 514.2 0C471.3 0 428.7 0 385.8 0C343 0 300 0 257.2 0C214.3 0 171.7 0 128.8 0C86 0 43 0 21.5 0L0 0Z" fill="#276554"></path><path d="M0 30L21.5 34.3C43 38.7 86 47.3 128.8 50.8C171.7 54.3 214.3 52.7 257.2 52.5C300 52.3 343 53.7 385.8 50.7C428.7 47.7 471.3 40.3 514.2 36.7C557 33 600 33 642.8 35.3C685.7 37.7 728.3 42.3 771.2 41.5C814 40.7 857 34.3 878.5 31.2L900 28L900 0L878.5 0C857 0 814 0 771.2 0C728.3 0 685.7 0 642.8 0C600 0 557 0 514.2 0C471.3 0 428.7 0 385.8 0C343 0 300 0 257.2 0C214.3 0 171.7 0 128.8 0C86 0 43 0 21.5 0L0 0Z" fill="#259277"></path><path d="M0 25L21.5 25.7C43 26.3 86 27.7 128.8 26C171.7 24.3 214.3 19.7 257.2 17.3C300 15 343 15 385.8 17.8C428.7 20.7 471.3 26.3 514.2 26.7C557 27 600 22 642.8 18.7C685.7 15.3 728.3 13.7 771.2 15.5C814 17.3 857 22.7 878.5 25.3L900 28L900 0L878.5 0C857 0 814 0 771.2 0C728.3 0 685.7 0 642.8 0C600 0 557 0 514.2 0C471.3 0 428.7 0 385.8 0C343 0 300 0 257.2 0C214.3 0 171.7 0 128.8 0C86 0 43 0 21.5 0L0 0Z" fill="#14c29c"></path></svg>